# xmcd CD database file
#
# Track frame offsets:
#	150
#	9750
#	31725
#	53850
#	83325
#	175950
#	200550
#	208050
#	228075
#	253050
#	273975
#
# Disc length: 4232 seconds
#
# Revision: 0
# Processed by: cddbd v1.5.1PL0 Copyright (c) Steve Scherf et al.
# Submitted via: CDex 1.51
#
DISCID=8310860b
DTITLE=CHOPIN - new ショパン　大好き
DYEAR=1900
DGENRE=Classical
TTITLE0=エチュード　第1番　ハ長調　作品10の1
TTITLE1=ノクターン　第20番　嬰ハ短調　遺作
TTITLE2=ワルツ　第1番　変ホ長調　作品18　「華麗なる大円舞曲」
TTITLE3=ポロネーズ　第6番　変イ長調　作品53　「英雄」
TTITLE4=ピアノ協奏曲　第1番　ホ短調　作品11：第1楽章
TTITLE5=プレリュード　第15番　変ニ長調　作品28の15　「雨だれ」
TTITLE6=ワルツ　第6番　変ニ長調　作品64の1　「子犬」
TTITLE7=エチュード　第3番　ホ長調　作品10の3　「別れの曲」
TTITLE8=即興曲　第4番　嬰ハ短調　作品66　「幻想即興曲」
TTITLE9=ノクターン　第2番　変ホ長調　作品9の2
TTITLE10=ピアノ協奏曲　第2番　ヘ短調　作品21：第2楽章
EXTD=
EXTT0=
EXTT1=
EXTT2=
EXTT3=
EXTT4=
EXTT5=
EXTT6=
EXTT7=
EXTT8=
EXTT9=
EXTT10=
PLAYORDER=
